<svg xmlns="http://www.w3.org/2000/svg" width="24" height="24" viewBox="0 0 24 24"><g><path fill="#4285F4" d="M12 12v3.6h5.1c-.2 1.2-1.4 3.5-5.1 3.5-3.1 0-5.6-2.6-5.6-5.7s2.5-5.7 5.6-5.7c1.8 0 3 .7 3.7 1.3l2.5-2.4C16.2 5.7 14.3 4.8 12 4.8 7.6 4.8 4.1 8.3 4.1 12.7s3.5 7.9 7.9 7.9c4.6 0 7.6-3.2 7.6-7.7 0-.5-.1-.9-.2-1.3H12z"/><path fill="#34A853" d="M12 20.6c2.1 0 3.9-.7 5.2-1.9l-2.5-2.4c-.7.5-1.7.8-2.7.8-2.1 0-3.9-1.4-4.5-3.3H4.1v2.1C5.4 18.7 8.5 20.6 12 20.6z"/><path fill="#FBBC05" d="M7.5 13.8c-.2-.5-.3-1-.3-1.6s.1-1.1.3-1.6V8.5H4.1c-.6 1.2-.9 2.5-.9 4s.3 2.8.9 4l3.4-2.7z"/><path fill="#EA4335" d="M12 7.3c1.2 0 2.3.4 3.1 1.1l2.3-2.3C16 4.7 14.1 3.8 12 3.8c-3.5 0-6.6 1.9-7.9 4.7l3.4 2.7c.6-1.9 2.4-3.3 4.5-3.3z"/></g></svg>